<svg id="svg" version="1.1" xmlns="http://www.w3.org/2000/svg" xmlns:xlink="http://www.w3.org/1999/xlink" width="400" height="400" viewBox="0, 0, 400,400"><g id="svgg"><path id="path0" d="M252.393 72.900 C 252.320 154.076,163.512 246.874,80.200 252.830 C 71.403 253.459,71.415 253.341,79.705 257.726 C 101.613 269.314,122.696 276.148,151.000 280.839 C 175.685 284.929,191.470 289.326,211.300 297.632 C 241.983 310.486,269.997 306.937,290.094 287.651 C 312.165 266.472,315.459 234.758,298.968 202.200 C 289.716 183.934,286.840 174.468,284.021 153.000 C 280.142 123.471,272.259 99.134,258.301 73.600 C 252.508 63.001,252.402 62.988,252.393 72.900 " stroke="none" fill="#bb635b" fill-rule="evenodd"></path><path id="path1" d="M147.377 1.189 C 81.631 18.378,18.347 81.454,1.221 146.864 L -0.000 151.528 -0.000 177.685 L -0.000 203.843 1.402 208.006 C 6.252 222.409,15.285 234.023,28.507 242.856 C 30.538 244.213,34.180 246.888,36.600 248.801 C 58.093 265.787,80.903 278.219,106.200 286.733 C 121.436 291.861,132.144 294.301,152.200 297.215 C 155.727 297.727,158.085 298.146,164.600 299.419 C 180.135 302.454,192.200 306.366,206.200 312.910 C 227.989 323.094,249.961 324.777,269.768 317.778 C 271.291 317.240,272.822 316.800,273.170 316.800 C 273.519 316.800,280.360 323.358,288.373 331.373 L 302.943 345.947 301.713 348.673 C 292.770 368.496,300.450 390.237,319.436 398.846 L 321.982 400.000 334.091 399.989 L 346.200 399.978 348.813 398.863 C 359.813 394.169,368.044 383.027,370.183 369.937 C 370.409 368.555,370.537 368.447,372.511 367.985 C 383.881 365.318,393.393 357.936,398.110 348.117 L 399.800 344.600 399.800 332.600 L 399.800 320.600 398.149 317.149 C 389.302 298.657,367.866 290.838,349.615 299.445 L 345.831 301.229 332.092 287.491 L 318.354 273.753 319.151 271.576 C 328.267 246.681,325.731 220.072,311.871 195.200 C 306.221 185.060,302.639 175.084,300.742 164.200 C 300.418 162.342,300.122 160.082,299.195 152.400 C 298.695 148.252,298.124 144.274,297.588 141.200 C 297.339 139.770,296.991 137.700,296.814 136.600 C 296.182 132.672,293.430 121.654,291.370 114.800 C 281.754 82.804,265.270 52.069,245.335 28.966 C 238.739 21.322,234.250 16.590,233.355 16.338 C 232.843 16.194,230.934 14.881,229.112 13.421 C 222.763 8.331,214.255 3.793,206.295 1.248 L 202.390 -0.000 177.095 0.016 L 151.800 0.033 147.377 1.189 M190.400 13.033 C 257.030 22.793,256.831 109.881,190.014 181.800 C 149.375 225.542,92.291 249.456,53.400 239.031 C 45.638 236.951,44.674 236.346,33.417 226.500 C 29.793 223.330,28.984 222.800,27.774 222.800 C 24.374 222.800,17.686 211.762,14.568 201.004 C -8.428 121.676,104.913 0.511,190.400 13.033 M255.382 67.606 C 270.152 91.483,280.433 121.858,284.617 153.974 C 287.016 172.391,290.371 184.124,296.919 197.000 C 302.874 208.711,303.947 211.055,305.542 215.845 C 321.077 262.504,291.850 305.741,244.800 305.704 C 233.224 305.694,224.983 303.795,210.600 297.820 C 190.720 289.562,175.943 285.484,150.350 281.192 C 130.878 277.926,119.537 275.006,105.045 269.527 C 88.779 263.378,69.918 253.842,72.440 253.044 C 72.748 252.946,75.970 252.664,79.600 252.417 C 163.366 246.717,252.000 153.970,252.000 72.016 C 252.000 62.452,252.107 62.312,255.382 67.606 M129.896 84.206 C 97.657 90.316,70.737 133.751,88.373 151.204 C 106.091 168.738,148.932 142.486,155.614 110.000 C 159.154 92.785,147.309 80.905,129.896 84.206 M139.077 95.401 C 148.005 98.052,146.975 111.333,136.792 124.885 C 118.637 149.047,88.730 153.335,94.402 130.964 C 99.260 111.802,125.084 91.245,139.077 95.401 M325.588 300.944 C 345.009 320.282,344.392 319.859,348.469 316.628 C 356.015 310.647,361.716 308.977,369.200 310.556 C 396.185 316.248,390.868 354.722,363.087 354.793 C 357.242 354.808,356.601 355.697,356.596 363.800 C 356.587 378.135,347.427 387.967,334.058 387.994 C 314.778 388.033,304.685 365.323,317.222 350.112 C 319.371 347.504,319.986 345.605,319.420 343.324 C 319.231 342.566,313.675 336.718,302.370 325.380 C 293.147 316.129,285.600 308.262,285.600 307.897 C 285.600 307.206,286.118 306.758,291.400 302.882 C 295.992 299.512,300.348 295.298,304.048 290.647 C 307.420 286.410,308.593 285.200,309.333 285.200 C 309.577 285.200,316.892 292.285,325.588 300.944 " stroke="none" fill="#2c2c3c" fill-rule="evenodd"></path><path id="path2" d="M169.200 13.859 C 89.799 21.410,3.929 119.246,13.823 190.886 C 15.780 205.052,23.601 221.600,28.340 221.600 C 29.671 221.600,30.372 222.086,35.014 226.219 C 43.419 233.705,45.817 235.376,50.143 236.762 C 110.887 256.220,205.757 190.617,232.447 110.698 C 252.494 50.671,224.987 8.554,169.200 13.859 M141.000 83.002 C 159.880 86.966,162.987 108.750,147.789 130.600 C 127.707 159.472,91.460 167.516,82.979 144.983 C 73.223 119.064,112.569 77.033,141.000 83.002 M128.200 97.233 C 111.423 102.901,94.698 122.157,94.702 135.800 C 94.707 152.296,121.829 144.286,136.756 123.380 C 149.685 105.270,145.178 91.496,128.200 97.233 M138.926 96.980 C 153.230 102.081,133.840 134.679,111.844 142.509 C 84.516 152.237,93.859 115.001,122.400 100.440 C 129.596 96.769,135.103 95.616,138.926 96.980 M308.591 286.706 C 308.366 286.868,306.901 288.620,305.335 290.600 C 301.769 295.108,295.965 300.747,291.570 303.974 C 287.084 307.268,286.800 307.512,286.800 308.080 C 286.800 308.349,294.254 316.046,303.365 325.184 C 323.492 345.373,322.997 344.499,317.879 350.832 C 307.241 363.996,313.638 383.187,329.800 386.596 C 343.307 389.444,356.065 378.778,355.632 365.000 C 355.570 363.020,355.493 360.557,355.462 359.526 C 355.342 355.607,357.671 354.050,364.304 353.611 C 377.900 352.713,386.603 343.599,385.897 331.000 C 384.895 313.132,364.766 304.808,350.436 316.335 C 344.372 321.213,345.105 321.629,325.784 302.367 C 316.975 293.585,309.595 286.403,309.384 286.406 C 309.173 286.409,308.816 286.544,308.591 286.706 M325.584 302.976 C 334.283 311.653,341.907 318.943,342.526 319.176 C 345.283 320.214,347.367 319.576,351.069 316.561 C 361.471 308.088,377.006 310.884,382.886 322.287 C 390.497 337.047,380.220 353.148,363.160 353.193 C 356.494 353.211,354.561 355.436,355.007 362.578 C 355.861 376.246,346.898 386.416,334.016 386.395 C 315.946 386.367,306.663 365.252,318.451 350.988 C 321.218 347.640,321.843 345.367,320.778 342.526 C 320.546 341.907,312.986 334.017,303.978 324.994 C 294.970 315.970,287.600 308.374,287.600 308.113 C 287.600 307.853,289.355 306.343,291.500 304.758 C 296.360 301.167,301.535 296.178,305.666 291.100 C 307.411 288.955,309.048 287.200,309.303 287.200 C 309.558 287.200,316.885 294.299,325.584 302.976 " stroke="none" fill="#db93ab" fill-rule="evenodd"></path><path id="path3" d="M132.200 96.672 C 116.304 100.229,99.128 116.856,95.757 131.949 C 91.411 151.404,119.025 146.104,135.333 124.352 C 147.474 108.160,145.828 93.622,132.200 96.672 M305.666 291.100 C 301.535 296.178,296.360 301.167,291.500 304.758 C 289.355 306.343,287.600 307.853,287.600 308.113 C 287.600 308.374,294.970 315.970,303.978 324.994 C 312.986 334.017,320.546 341.907,320.778 342.526 C 321.843 345.367,321.218 347.640,318.451 350.988 C 306.663 365.252,315.946 386.367,334.016 386.395 C 346.898 386.416,355.861 376.246,355.007 362.578 C 354.561 355.436,356.494 353.211,363.160 353.193 C 380.220 353.148,390.497 337.047,382.886 322.287 C 377.006 310.884,361.471 308.088,351.069 316.561 C 347.367 319.576,345.283 320.214,342.526 319.176 C 341.907 318.943,334.283 311.653,325.584 302.976 C 316.885 294.299,309.558 287.200,309.303 287.200 C 309.048 287.200,307.411 288.955,305.666 291.100 " stroke="none" fill="#fbfbfb" fill-rule="evenodd"></path><path id="path4" d="M170.800 12.434 C 80.771 20.580,-11.280 137.098,16.772 207.404 C 19.986 215.460,25.231 222.800,27.774 222.800 C 28.984 222.800,29.793 223.330,33.417 226.500 C 44.674 236.346,45.638 236.951,53.400 239.031 C 110.996 254.470,198.047 196.834,229.319 122.556 C 256.793 57.301,230.100 7.069,170.800 12.434 M194.274 14.967 C 233.822 23.313,248.956 61.265,232.447 110.698 C 205.757 190.617,110.887 256.220,50.143 236.762 C 45.817 235.376,43.419 233.705,35.014 226.219 C 30.372 222.086,29.671 221.600,28.340 221.600 C 23.601 221.600,15.780 205.052,13.823 190.886 C 4.278 121.776,83.983 27.328,162.400 14.827 C 172.383 13.236,186.362 13.297,194.274 14.967 M252.000 72.016 C 252.000 153.970,163.366 246.717,79.600 252.417 C 75.970 252.664,72.748 252.946,72.440 253.044 C 69.918 253.842,88.779 263.378,105.045 269.527 C 119.537 275.006,130.878 277.926,150.350 281.192 C 175.943 285.484,190.720 289.562,210.600 297.820 C 224.983 303.795,233.224 305.694,244.800 305.704 C 291.850 305.741,321.077 262.504,305.542 215.845 C 303.947 211.055,302.874 208.711,296.919 197.000 C 290.371 184.124,287.016 172.391,284.617 153.974 C 280.433 121.858,270.152 91.483,255.382 67.606 C 252.107 62.312,252.000 62.452,252.000 72.016 M254.145 66.500 C 255.469 68.246,260.929 78.273,263.760 84.155 C 274.515 106.509,280.654 127.369,284.021 153.000 C 286.840 174.468,289.716 183.934,298.968 202.200 C 313.396 230.686,312.759 258.775,297.210 279.637 C 278.003 305.409,245.910 312.131,211.300 297.632 C 191.470 289.326,175.685 284.929,151.000 280.839 C 122.696 276.148,101.613 269.314,79.705 257.726 C 71.415 253.341,71.403 253.459,80.200 252.830 C 163.512 246.874,252.320 154.076,252.393 72.900 C 252.400 64.753,252.512 64.346,254.145 66.500 M131.000 82.687 C 102.856 86.602,74.736 123.082,82.979 144.983 C 92.302 169.752,134.124 157.021,151.909 124.000 C 164.652 100.340,154.092 79.474,131.000 82.687 M142.400 84.625 C 162.603 90.604,160.196 118.892,137.647 140.488 C 112.560 164.513,81.733 161.310,82.904 134.800 C 84.087 108.009,119.759 77.925,142.400 84.625 M130.964 95.394 C 115.730 98.708,98.274 115.691,94.402 130.964 C 88.730 153.335,118.637 149.047,136.792 124.885 C 150.115 107.154,147.098 91.883,130.964 95.394 M139.846 96.765 C 152.234 102.391,136.972 131.087,116.200 141.225 C 98.326 149.949,89.601 141.767,98.017 124.173 C 106.188 107.089,129.272 91.963,139.846 96.765 M308.079 285.900 C 307.633 286.285,305.819 288.421,304.048 290.647 C 300.348 295.298,295.992 299.512,291.400 302.882 C 286.118 306.758,285.600 307.206,285.600 307.897 C 285.600 308.262,293.147 316.129,302.370 325.380 C 313.675 336.718,319.231 342.566,319.420 343.324 C 319.986 345.605,319.371 347.504,317.222 350.112 C 304.685 365.323,314.778 388.033,334.058 387.994 C 347.427 387.967,356.587 378.135,356.596 363.800 C 356.601 355.697,357.242 354.808,363.087 354.793 C 390.868 354.722,396.185 316.248,369.200 310.556 C 361.716 308.977,356.015 310.647,348.469 316.628 C 344.392 319.859,345.009 320.282,325.588 300.944 C 309.105 284.531,309.385 284.771,308.079 285.900 M325.784 302.367 C 345.105 321.629,344.372 321.213,350.436 316.335 C 364.766 304.808,384.895 313.132,385.897 331.000 C 386.603 343.599,377.900 352.713,364.304 353.611 C 357.671 354.050,355.342 355.607,355.462 359.526 C 355.493 360.557,355.570 363.020,355.632 365.000 C 356.065 378.778,343.307 389.444,329.800 386.596 C 313.638 383.187,307.241 363.996,317.879 350.832 C 322.997 344.499,323.492 345.373,303.365 325.184 C 294.254 316.046,286.800 308.349,286.800 308.080 C 286.800 307.512,287.084 307.268,291.570 303.974 C 295.965 300.747,301.769 295.108,305.335 290.600 C 308.267 286.893,308.727 286.417,309.384 286.406 C 309.595 286.403,316.975 293.585,325.784 302.367 " stroke="none" fill="#8d7483" fill-rule="evenodd"></path></g></svg>